<svg width="36" height="36" viewBox="0 0 36 36" fill="none" xmlns="http://www.w3.org/2000/svg">
<path d="M9.75296 10.4625C9.956 8.41621 10.9125 6.51851 12.4366 5.13813C13.9608 3.75775 15.9436 2.99329 18 2.99329C20.0563 2.99329 22.0391 3.75775 23.5633 5.13813C25.0874 6.51851 26.0439 8.41621 26.247 10.4625L26.676 14.7615C26.703 15.024 26.715 15.1545 26.7315 15.2835C26.9475 17.0582 27.5574 18.7622 28.5165 20.271L28.8045 20.7075L30.096 22.6455C31.2765 24.4155 31.866 25.299 31.608 26.0115C31.5585 26.1465 31.491 26.274 31.4055 26.3895C30.9555 27 29.892 27 27.7665 27H8.23346C6.10796 27 5.04446 27 4.59446 26.3895C4.50973 26.2737 4.44204 26.1464 4.39346 26.0115C4.13396 25.299 4.72346 24.414 5.90246 22.6455L7.19546 20.7075L7.48346 20.271C8.44256 18.7622 9.05241 17.0582 9.26846 15.2835C9.28346 15.1545 9.29846 15.024 9.32396 14.7615L9.75296 10.4625Z" fill="white"/>
<path d="M15.1021 30.945C15.2731 31.104 15.6496 31.245 16.1746 31.3455C16.6981 31.446 17.3401 31.5 18.0001 31.5C18.6601 31.5 19.3021 31.446 19.8256 31.3455C20.3506 31.245 20.7256 31.104 20.8981 30.9435" stroke="white" stroke-width="2" stroke-linecap="round"/>
<rect x="30" width="6" height="6" rx="3" fill="#FAFF00"/>
</svg>
