<svg width="36" height="36" viewBox="0 0 36 36" fill="none" xmlns="http://www.w3.org/2000/svg">
<g id="mingcute:search-line" clip-path="url(#clip0_1_1341)">
<g id="Group">
<path id="Vector" fill-rule="evenodd" clip-rule="evenodd" d="M15.7499 3C13.7168 3.00017 11.7132 3.48655 9.90628 4.41854C8.09937 5.35054 6.54153 6.70113 5.36275 8.35763C4.18396 10.0141 3.41841 11.9285 3.12995 13.9411C2.8415 15.9536 3.03852 18.006 3.70456 19.9269C4.3706 21.8478 5.48636 23.5816 6.95875 24.9836C8.43113 26.3856 10.2174 27.4152 12.1687 27.9864C14.1199 28.5576 16.1794 28.654 18.1754 28.2674C20.1714 27.8808 22.0461 27.0224 23.6429 25.764L29.1209 31.242C29.4038 31.5152 29.7827 31.6664 30.176 31.663C30.5693 31.6596 30.9455 31.5018 31.2236 31.2237C31.5017 30.9456 31.6595 30.5694 31.6629 30.1761C31.6663 29.7828 31.5151 29.4039 31.2419 29.121L25.7639 23.643C27.2459 21.7629 28.1686 19.5036 28.4265 17.1236C28.6844 14.7436 28.2671 12.339 27.2222 10.1851C26.1774 8.03125 24.5472 6.21503 22.5183 4.94435C20.4895 3.67366 18.1438 2.99984 15.7499 3ZM5.99989 15.75C5.99989 13.1641 7.02712 10.6842 8.8556 8.85571C10.6841 7.02723 13.164 6 15.7499 6C18.3358 6 20.8157 7.02723 22.6442 8.85571C24.4727 10.6842 25.4999 13.1641 25.4999 15.75C25.4999 18.3359 24.4727 20.8158 22.6442 22.6443C20.8157 24.4728 18.3358 25.5 15.7499 25.5C13.164 25.5 10.6841 24.4728 8.8556 22.6443C7.02712 20.8158 5.99989 18.3359 5.99989 15.75Z" fill="white"/>
</g>
</g>
<defs>
<clipPath id="clip0_1_1341">
<rect width="36" height="36" fill="white"/>
</clipPath>
</defs>
</svg>
