<svg width="36" height="36" viewBox="0 0 36 36" fill="none" xmlns="http://www.w3.org/2000/svg">
<g id="lets-icons:chat-fill">
<path id="Vector" fill-rule="evenodd" clip-rule="evenodd" d="M18 4.5C14.4196 4.5 10.9858 5.92232 8.45406 8.45406C5.92232 10.9858 4.5 14.4196 4.5 18C4.5 21.5804 5.92232 25.0142 8.45406 27.5459C10.9858 30.0777 14.4196 31.5 18 31.5H24.75C26.847 31.5 27.8955 31.5 28.722 31.158C29.2681 30.9318 29.7644 30.6003 30.1823 30.1823C30.6003 29.7644 30.9318 29.2681 31.158 28.722C31.5 27.8955 31.5 26.847 31.5 24.75V18C31.5 14.4196 30.0777 10.9858 27.5459 8.45406C25.0142 5.92232 21.5804 4.5 18 4.5ZM12 16.5C12 16.1022 12.158 15.7206 12.4393 15.4393C12.7206 15.158 13.1022 15 13.5 15H22.5C22.8978 15 23.2794 15.158 23.5607 15.4393C23.842 15.7206 24 16.1022 24 16.5C24 16.8978 23.842 17.2794 23.5607 17.5607C23.2794 17.842 22.8978 18 22.5 18H13.5C13.1022 18 12.7206 17.842 12.4393 17.5607C12.158 17.2794 12 16.8978 12 16.5ZM16.5 22.5C16.5 22.1022 16.658 21.7206 16.9393 21.4393C17.2206 21.158 17.6022 21 18 21H22.5C22.8978 21 23.2794 21.158 23.5607 21.4393C23.842 21.7206 24 22.1022 24 22.5C24 22.8978 23.842 23.2794 23.5607 23.5607C23.2794 23.842 22.8978 24 22.5 24H18C17.6022 24 17.2206 23.842 16.9393 23.5607C16.658 23.2794 16.5 22.8978 16.5 22.5Z" fill="white"/>
</g>
</svg>
