<svg width="36" height="36" viewBox="0 0 36 36" fill="none" xmlns="http://www.w3.org/2000/svg">
<g id="octicon:home-fill-24">
<path id="Vector" d="M19.455 3.88496C19.0485 3.54035 18.5329 3.3512 18 3.3512C17.4671 3.3512 16.9515 3.54035 16.545 3.88496L5.295 13.4295C5.04589 13.6407 4.84574 13.9035 4.70845 14.1999C4.57117 14.4962 4.50003 14.8189 4.5 15.1455V29.25C4.5 29.8467 4.73705 30.419 5.15901 30.8409C5.58097 31.2629 6.15326 31.5 6.75 31.5H13.875C14.1734 31.5 14.4595 31.3814 14.6705 31.1705C14.8815 30.9595 15 30.6733 15 30.375V21H21V30.375C21 30.996 21.504 31.5 22.125 31.5H29.25C29.8467 31.5 30.419 31.2629 30.841 30.8409C31.2629 30.419 31.5 29.8467 31.5 29.25V15.1455C31.5 14.8189 31.4288 14.4962 31.2915 14.1999C31.1543 13.9035 30.9541 13.6407 30.705 13.4295L19.455 3.88496Z" fill="white"/>
</g>
</svg>
