<svg width="275" height="77" viewBox="0 0 275 77" fill="none" xmlns="http://www.w3.org/2000/svg">
<g clip-path="url(#clip0_4_982)">
<path d="M11.2893 1.02601C10.9341 1.04648 3.91567 30.7996 21.9424 52.0942C23.1761 53.5514 34.7007 66.7858 51.8566 68.4954C55.8978 68.8986 62.5338 69.4605 67.7969 65.1533C68.814 64.3204 73.3074 60.4175 73.2586 54.6489C73.2056 48.3417 67.7432 42.4286 62.0322 41.209C53.7676 39.4436 50.0412 48.5837 39.9037 48.5175C31.2053 48.461 24.7552 41.646 22.2599 39.0832C8.05989 24.4996 11.546 1.01211 11.2893 1.02601Z" fill="#FAFF00"/>
</g>
<path d="M109.312 61.875C106.083 61.875 103.021 61.2708 100.125 60.0625C97.2499 58.8333 94.6874 57.0417 92.4374 54.6875L98.3749 48.1875C99.9999 49.875 101.708 51.125 103.5 51.9375C105.292 52.7292 107.229 53.125 109.312 53.125C111.583 53.125 113.375 52.6458 114.687 51.6875C116 50.7292 116.667 49.4167 116.687 47.75C116.667 46.8333 116.427 46.0625 115.969 45.4375C115.51 44.7917 114.75 44.2083 113.687 43.6875C112.646 43.1667 111.187 42.6458 109.312 42.125L107.187 41.5625C102.812 40.4375 99.5207 38.7917 97.3124 36.625C95.1249 34.4375 94.0415 31.75 94.0624 28.5625C94.0624 25.9792 94.7499 23.6458 96.1249 21.5625C97.5207 19.4792 99.4478 17.8438 101.906 16.6562C104.364 15.4688 107.125 14.875 110.187 14.875C113.083 14.875 115.875 15.4583 118.562 16.625C121.25 17.7917 123.646 19.4375 125.75 21.5625L119.875 28.125C116.917 25.125 113.687 23.625 110.187 23.625C108.875 23.625 107.698 23.8333 106.656 24.25C105.635 24.6458 104.833 25.2188 104.25 25.9688C103.667 26.6979 103.375 27.5208 103.375 28.4375C103.375 29.2292 103.562 29.8958 103.937 30.4375C104.333 30.9792 104.969 31.4688 105.844 31.9062C106.739 32.3229 107.958 32.7292 109.5 33.125L111.625 33.6875C116.562 35.0208 120.187 36.8021 122.5 39.0312C124.812 41.2604 125.979 44.1042 126 47.5625C126 50.3333 125.292 52.8125 123.875 55C122.458 57.1667 120.479 58.8542 117.937 60.0625C115.417 61.2708 112.542 61.875 109.312 61.875ZM133.592 28.75H142.467V61H133.592V28.75ZM137.999 24C137.019 24 136.124 23.7812 135.311 23.3438C134.499 22.8854 133.863 22.2604 133.405 21.4688C132.967 20.6771 132.749 19.7917 132.749 18.8125C132.749 17.8333 132.967 16.9479 133.405 16.1562C133.863 15.3646 134.499 14.75 135.311 14.3125C136.124 13.8542 137.019 13.625 137.999 13.625C138.978 13.625 139.874 13.8542 140.686 14.3125C141.499 14.75 142.134 15.3646 142.592 16.1562C143.072 16.9479 143.311 17.8333 143.311 18.8125C143.311 19.7917 143.072 20.6771 142.592 21.4688C142.134 22.2604 141.499 22.8854 140.686 23.3438C139.874 23.7812 138.978 24 137.999 24ZM151.31 28.75H160.185V33.4375H160.404C161.258 31.7083 162.424 30.3542 163.904 29.375C165.404 28.375 167.06 27.875 168.872 27.875C169.789 27.875 170.831 28.0417 171.997 28.375V36.8125C170.664 36.4792 169.393 36.2917 168.185 36.25C165.602 36.2708 163.622 37.1354 162.247 38.8438C160.893 40.5521 160.206 43.0104 160.185 46.2188V61H151.31V28.75ZM194.215 61.875C191.007 61.875 188.09 61.1354 185.465 59.6562C182.84 58.1771 180.777 56.1458 179.277 53.5625C177.777 50.9583 177.027 48.0625 177.027 44.875C177.027 41.6875 177.777 38.8021 179.277 36.2188C180.777 33.6146 182.84 31.5729 185.465 30.0938C188.09 28.6146 191.007 27.875 194.215 27.875C197.59 27.875 200.59 28.6979 203.215 30.3438C205.861 31.9688 207.861 34.1875 209.215 37L201.34 40.25C200.694 38.8958 199.746 37.8542 198.496 37.125C197.267 36.375 195.84 36 194.215 36C192.527 36 191.027 36.375 189.715 37.125C188.402 37.875 187.382 38.9271 186.652 40.2812C185.944 41.6354 185.59 43.1667 185.59 44.875C185.59 46.5833 185.944 48.1146 186.652 49.4688C187.382 50.8229 188.402 51.875 189.715 52.625C191.027 53.375 192.527 53.75 194.215 53.75C195.84 53.75 197.267 53.3854 198.496 52.6562C199.746 51.9062 200.694 50.8542 201.34 49.5L209.215 52.75C207.861 55.5625 205.861 57.7917 203.215 59.4375C200.59 61.0625 197.59 61.875 194.215 61.875ZM216.432 15.75H225.307V61H216.432V15.75ZM250.025 61.875C246.587 61.875 243.535 61.1458 240.869 59.6875C238.223 58.2083 236.16 56.1771 234.681 53.5938C233.202 51.0104 232.462 48.1042 232.462 44.875C232.462 41.6042 233.192 38.6771 234.65 36.0938C236.129 33.5104 238.15 31.5 240.712 30.0625C243.296 28.6042 246.192 27.875 249.4 27.875C252.608 27.875 255.452 28.5938 257.931 30.0312C260.431 31.4688 262.369 33.4792 263.744 36.0625C265.139 38.625 265.837 41.5417 265.837 44.8125C265.837 45.8333 265.775 46.8125 265.65 47.75H241.431C241.806 49.8333 242.775 51.5 244.337 52.75C245.9 54 247.796 54.625 250.025 54.625C251.671 54.625 253.077 54.2708 254.244 53.5625C255.431 52.8542 256.337 51.8542 256.962 50.5625L264.712 53.5C263.358 56.125 261.421 58.1771 258.9 59.6562C256.4 61.1354 253.442 61.875 250.025 61.875ZM256.775 41C256.629 39.875 256.233 38.875 255.587 38C254.942 37.1042 254.077 36.4062 252.994 35.9062C251.931 35.3854 250.733 35.125 249.4 35.125C247.462 35.125 245.796 35.6562 244.4 36.7188C243.004 37.7604 242.067 39.1875 241.587 41H256.775Z" fill="white"/>
<defs>
<clipPath id="clip0_4_982">
<rect width="85.5307" height="58.6853" fill="white" transform="translate(11.1556 3) rotate(10.9583)"/>
</clipPath>
</defs>
</svg>
